<svg width="61" height="47" viewBox="0 0 61 47" fill="none" xmlns="http://www.w3.org/2000/svg">
<path d="M14.2638 0C6.42484 0 0 6.40514 0 14.2231C0 17.2525 0.967225 20.0679 2.60485 22.382L12.5237 39.5285C13.9127 41.3434 14.8364 40.999 15.9918 39.4334L26.9315 20.8157C27.1522 20.415 27.3255 19.9898 27.4769 19.5551C28.1711 17.8631 28.5281 16.0519 28.5277 14.2231C28.5277 6.40514 22.1049 0 14.2638 0ZM14.2638 6.66461C18.4859 6.66461 21.8441 10.0139 21.8441 14.2238C21.8441 18.4336 18.4859 21.7816 14.2638 21.7816C10.0424 21.7816 6.68363 18.433 6.68363 14.2238C6.68363 10.0139 10.0424 6.66461 14.2638 6.66461Z" fill="#DEC87D"/>
<path fill-rule="evenodd" clip-rule="evenodd" d="M59.9149 3.67596C58.3887 3.70993 56.8584 3.77445 55.3254 3.88788L55.5617 7.64539C57.0343 7.53874 58.5094 7.47011 59.9856 7.43958L59.9149 3.67596ZM51.7811 4.23293C49.4242 4.52568 47.0469 4.94273 44.6968 5.61313L45.5818 9.25449C47.7173 8.6459 49.9302 8.25262 52.1778 7.97346L51.7811 4.23293ZM41.1777 6.87378C40.4735 7.18461 39.7917 7.54388 39.1373 7.949L39.1345 7.9524L39.1305 7.95376C38.1965 8.54197 37.2123 9.28845 36.4088 10.3732C35.8267 11.159 35.3505 12.1528 35.2392 13.3278L38.6998 13.7116C38.7256 13.4358 38.8669 13.0718 39.121 12.7294H39.1223V12.7281C39.5319 12.1738 40.1459 11.6705 40.8761 11.21L40.8788 11.2086C41.3993 10.8874 41.9412 10.6024 42.5008 10.3555L41.1777 6.87378ZM39.396 15.3879L37.1525 18.2645C37.6844 18.7508 38.242 19.1244 38.7807 19.4368L38.7875 19.4402L38.7942 19.4443C40.582 20.4611 42.4254 21.0351 44.1344 21.5798L45.1165 17.9677C43.4083 17.4229 41.7978 16.8972 40.4176 16.1134C40.0223 15.8838 39.6759 15.644 39.396 15.3879ZM48.4536 18.9838L47.4945 22.602L47.9482 22.7433L48.5052 22.9213C50.3486 23.521 52.1146 24.1616 53.6932 25.048L55.2948 21.7061C53.3862 20.6336 51.4048 19.9327 49.4955 19.3119L49.4901 19.3105L48.9182 19.1278L48.4536 18.9838ZM58.5517 24.2139L56.0909 26.8764C56.6723 27.5061 57.1077 28.2634 57.3196 29.0459L57.3209 29.05L57.3223 29.0561C57.575 29.9697 57.5757 31.0442 57.378 32.1296L60.7905 32.8578C61.0689 31.3254 61.1138 29.643 60.656 27.9822C60.2573 26.5137 59.4965 25.2381 58.5517 24.2139ZM56.1866 34.3982C55.8106 34.7954 55.395 35.1532 54.9464 35.466H54.945C53.7224 36.3259 52.3041 36.9739 50.7976 37.5309L51.9211 41.0927C53.5689 40.4835 55.2608 39.7363 56.8421 38.6237L56.8462 38.6203L56.8482 38.619C57.4976 38.1643 58.0983 37.6437 58.6407 37.0656L56.1866 34.3982ZM47.6012 38.5341C45.4188 39.1209 43.1882 39.5679 40.9304 39.9469L41.4629 43.6684C43.7866 43.2778 46.1198 42.8112 48.4386 42.1877L47.6012 38.5341ZM37.5336 40.4604C35.2609 40.7708 32.976 41.0241 30.6842 41.2401L30.9845 44.9909C33.3115 44.7721 35.6426 44.5147 37.9703 44.1962L37.5336 40.4604ZM27.2399 41.5356C24.9434 41.7176 22.6415 41.8657 20.3375 41.9907L20.5114 45.7509C22.8378 45.6253 25.1662 45.4751 27.4939 45.2904L27.2399 41.5356ZM16.8755 42.1605C15.4946 42.225 14.1103 42.278 12.7227 42.3269L12.8368 46.0905C14.2331 46.0425 15.6292 45.9868 17.0249 45.9234L16.8755 42.1605Z" fill="#DEC87D"/>
</svg>
