<svg width="36" height="36" viewBox="0 0 36 36" fill="none" xmlns="http://www.w3.org/2000/svg">
<path d="M0.575252 18.1993C1.19916 18.8232 1.82307 19.0195 3.05414 19.0195L16.5534 19.091C16.6782 19.091 16.7847 19.091 16.8387 19.1618C16.892 19.215 16.9095 19.3223 16.9095 19.4296L16.9627 32.9467C16.981 34.177 17.1773 34.8009 17.8012 35.4248C18.6397 36.2807 19.8167 36.1384 20.6902 35.2825C21.1543 34.8184 21.5287 34.0522 21.8672 33.3385L35.5095 3.91604C36.2225 2.4187 36.1334 1.31244 35.403 0.581269C34.6886 -0.131639 33.583 -0.220658 32.0856 0.492251L2.66154 14.1341C1.94785 14.4727 1.18166 14.847 0.717533 15.3112C-0.138438 16.1846 -0.280719 17.3441 0.575252 18.2001" fill="#DEC87D"/>
</svg>
